# Blender 4.1.1
# www.blender.org
mtllib FeBreak.mtl
o Cube
v 0.043265 0.123008 -0.949738
v 0.043265 0.123008 0.960202
v 0.043265 -0.084565 -0.949738
v 0.043265 -0.115735 0.960202
v -0.239282 -0.109423 -0.058149
v -0.076106 0.123008 -0.949738
v -0.076412 0.048224 0.811972
v -0.076106 -0.115735 0.960202
v -0.076106 -0.084565 -0.949738
vn 1.0000 -0.0000 -0.0000
vn -0.0000 -0.0000 -1.0000
vn -0.9775 0.1406 0.1575
vn -0.7663 0.6420 0.0271
vn -0.0000 -0.9996 -0.0279
vn 0.0365 -0.9992 -0.0163
vn -0.0000 -1.0000 -0.0062
vn -0.5299 0.8480 -0.0000
vn -0.0000 0.6706 0.7418
vn -0.9837 -0.0000 -0.1800
vn -0.0000 0.9991 0.0424
vn -0.7781 -0.0000 0.6282
vt 0.593750 0.500000
vt 0.625000 0.750000
vt 0.593750 0.750000
vt 0.625000 0.484375
vt 0.593750 0.484375
vt 0.593750 0.765625
vt 0.625000 0.765625
vt 0.593750 0.781250
vt 0.640625 0.500000
vt 0.656250 0.750000
vt 0.640625 0.750000
vt 0.562500 0.484375
vt 0.562500 0.500000
vt 0.562500 0.750000
vt 0.625000 0.500000
vt 0.625000 0.468750
s 0
usemtl Material.001
f 3/1/1 2/2/1 4/3/1
f 6/4/2 3/1/2 9/5/2
f 8/6/3 7/7/3 5/8/3
f 6/9/4 5/10/4 7/11/4
f 5/12/5 9/5/5 3/1/5
f 5/13/6 3/1/6 4/3/6
f 5/14/7 4/3/7 8/6/7
f 1/15/8 7/11/8 2/2/8
f 4/3/9 7/7/9 8/6/9
f 5/16/10 6/4/10 9/5/10
f 3/1/1 1/15/1 2/2/1
f 6/4/2 1/15/2 3/1/2
f 1/15/11 6/9/11 7/11/11
f 4/3/12 2/2/12 7/7/12
