# Blender 3.5.0
# www.blender.org
mtllib FeBreak.mtl
o Cube.001
v 0.219916 0.281458 -0.100000
v 0.219916 0.281458 0.100000
v 0.219916 -0.044582 -0.100000
v 0.219916 -0.093542 0.100000
v -0.223889 -0.083627 -0.006637
v 0.032416 0.281458 -0.100000
v 0.031936 0.163993 0.084478
v 0.032416 -0.093542 0.100000
v 0.032416 -0.044582 -0.100000
vn 1.0000 -0.0000 -0.0000
vn -0.0000 -0.0000 -1.0000
vn -0.3817 0.0549 0.9226
vn -0.7100 0.5948 0.3769
vn -0.0000 -0.9226 -0.3858
vn 0.0354 -0.9707 -0.2376
vn -0.0000 -0.9957 -0.0926
vn -0.5299 0.8480 -0.0000
vn -0.0000 0.0602 0.9982
vn -0.3423 -0.0000 -0.9396
vn -0.0000 0.8435 0.5371
vn -0.0823 -0.0000 0.9966
vt 0.625000 0.500000
vt 0.625000 0.750000
vt 0.593750 0.500000
vt 0.593750 0.750000
vt 0.593750 0.781250
vt 0.656250 0.750000
vt 0.562500 0.484375
vt 0.562500 0.500000
vt 0.562500 0.750000
vt 0.625000 0.468750
vt 0.625000 0.484375
vt 0.640625 0.500000
vt 0.640625 0.750000
vt 0.625000 0.765625
vt 0.593750 0.765625
vt 0.593750 0.484375
s 0
usemtl Material.001
f 3/3/1 2/2/1 4/4/1
f 6/11/2 3/3/2 9/16/2
f 8/15/3 7/14/3 5/5/3
f 6/12/4 5/6/4 7/13/4
f 5/7/5 9/16/5 3/3/5
f 5/8/6 3/3/6 4/4/6
f 5/9/7 4/4/7 8/15/7
f 1/1/8 7/13/8 2/2/8
f 4/4/9 7/14/9 8/15/9
f 5/10/10 6/11/10 9/16/10
f 3/3/1 1/1/1 2/2/1
f 6/11/2 1/1/2 3/3/2
f 1/1/11 6/12/11 7/13/11
f 4/4/12 2/2/12 7/14/12
