# Blender 3.5.0
# www.blender.org
mtllib Rock.mtl
o Cube
o 立方体
v -0.722133 0.566235 -0.004454
v -0.805536 -0.841170 0.000000
v 0.790689 -0.811475 0.000000
v 0.560103 0.449973 0.002969
v 0.861532 -0.132142 0.000000
v -0.000014 -0.815604 0.000000
v -0.955135 -0.194630 0.000000
v -0.044542 0.688004 -0.032664
v 0.000000 -0.830035 -0.787967
v -0.044542 0.622171 -0.647369
v 0.000000 -0.830035 0.787967
v -0.044542 0.588022 0.603278
v -0.014847 -0.091021 0.856992
v -0.014847 -0.091021 -0.889656
v 0.693794 -0.154122 -0.706823
v -0.772549 -0.170584 -0.709792
v -0.772549 -0.189885 0.705338
v 0.693794 -0.168970 0.709792
v 0.536854 0.451944 -0.607892
v 0.720919 -0.773380 -0.717289
v 0.536854 0.432578 0.568213
v 0.720919 -0.773380 0.717289
v -0.674139 0.527644 -0.611765
v -0.740715 -0.812973 -0.717289
v -0.674139 0.502468 0.562403
v -0.740715 -0.812973 0.717289
vn 0.2246 0.2784 0.9338
vn 0.2621 0.2212 -0.9394
vn -0.9697 -0.2244 -0.0965
vn 0.3668 0.9302 -0.0110
vn 0.0959 0.0210 -0.9952
vn 0.0766 -0.9969 0.0183
vn -0.0948 0.0069 -0.9955
vn -0.2195 0.2271 0.9488
vn -0.9560 0.1685 -0.2402
vn 0.9945 0.0452 -0.0943
vn -0.2444 0.1685 -0.9549
vn 0.9258 0.2967 0.2342
vn -0.0947 0.0143 0.9954
vn -0.9515 0.1858 0.2451
vn 0.9945 0.0458 0.0943
vn 0.0963 0.0167 0.9952
vn -0.1535 0.9825 -0.1052
vn 0.2604 0.9647 0.0404
vn -0.9946 -0.0491 0.0918
vn 0.0766 -0.9969 -0.0183
vn 0.9324 0.2790 -0.2299
vn 0.0317 -0.9988 0.0364
vn -0.1428 0.9777 0.1537
vn 0.0317 -0.9988 -0.0364
vn 0.1498 0.3518 0.9240
vn 0.1581 0.3235 -0.9329
vn -0.9671 -0.0450 -0.2503
vn 0.2859 0.9528 -0.1020
vn 0.2371 -0.1278 -0.9630
vn 0.0052 -0.9986 -0.0535
vn -0.2151 -0.1374 -0.9669
vn -0.1073 0.3439 0.9329
vn -0.9521 0.2910 -0.0937
vn 0.9687 -0.1010 -0.2267
vn -0.1008 0.3163 -0.9433
vn 0.8870 0.4590 0.0506
vn -0.1834 -0.0951 0.9784
vn -0.9498 0.2915 0.1132
vn 0.9694 -0.1011 0.2238
vn 0.1934 -0.0874 0.9772
vn -0.1794 0.9808 -0.0765
vn 0.3550 0.9235 0.1452
vn -0.9443 -0.2185 0.2459
vn 0.0052 -0.9986 0.0535
vn 0.8875 0.4597 -0.0323
vn -0.0213 -0.9996 -0.0183
vn -0.1705 0.9775 0.1244
vn -0.0213 -0.9996 0.0183
vt 0.625000 0.625000
vt 0.875000 0.625000
vt 0.125000 0.625000
vt 0.375000 0.625000
vt 0.375000 0.875000
vt 0.375000 0.625000
vt 0.625000 0.625000
vt 0.625000 0.875000
vt 0.500000 0.875000
vt 0.250000 0.625000
vt 0.500000 0.625000
vt 0.750000 0.625000
vt 0.375000 0.125000
vt 0.250000 0.500000
vt 0.750000 0.500000
vt 0.625000 0.125000
vt 0.375000 0.375000
vt 0.250000 0.750000
vt 0.625000 0.375000
vt 0.750000 0.750000
vt 0.500000 0.375000
vt 0.500000 0.125000
vt 0.500000 0.250000
vt 0.500000 0.750000
vt 0.500000 0.750000
vt 0.500000 0.000000
vt 0.500000 0.500000
vt 0.500000 1.000000
vt 0.500000 0.250000
vt 0.625000 0.250000
vt 0.625000 0.500000
vt 0.625000 0.750000
vt 0.375000 0.250000
vt 0.375000 0.750000
vt 0.375000 0.500000
vt 0.625000 0.750000
vt 0.625000 0.250000
vt 0.625000 1.000000
vt 0.375000 1.000000
vt 0.375000 0.250000
vt 0.375000 0.750000
vt 0.625000 0.750000
vt 0.625000 0.000000
vt 0.875000 0.500000
vt 0.375000 0.000000
vt 0.375000 0.750000
vt 0.125000 0.500000
vt 0.625000 0.500000
vt 0.875000 0.750000
vt 0.375000 0.500000
vt 0.125000 0.750000
s 0
usemtl マテリアル
f 21/37/1 13/21/1 18/29/1
f 14/22/2 19/30/2 15/23/2
f 7/11/3 24/46/3 2/4/3
f 19/31/4 8/12/4 4/7/4
f 9/13/5 15/23/5 20/33/5
f 20/35/6 6/10/6 9/14/6
f 16/26/7 9/13/7 24/45/7
f 13/21/8 25/48/8 17/27/8
f 7/11/9 23/42/9 16/25/9
f 15/24/10 3/5/10 20/34/10
f 23/43/11 14/22/11 16/26/11
f 5/9/12 21/38/12 18/28/12
f 11/17/13 17/27/13 26/50/13
f 25/48/14 7/11/14 17/27/14
f 3/5/15 18/28/15 22/39/15
f 18/29/16 11/17/16 22/40/16
f 23/44/17 8/12/17 10/15/17
f 4/7/18 12/20/18 21/36/18
f 17/27/19 2/4/19 26/50/19
f 6/10/20 22/41/20 11/18/20
f 19/32/21 5/9/21 15/24/21
f 6/10/22 26/51/22 2/3/22
f 8/12/23 25/49/23 12/20/23
f 24/47/24 6/10/24 2/3/24
f 21/37/25 12/19/25 13/21/25
f 14/22/26 10/16/26 19/30/26
f 7/11/27 16/25/27 24/46/27
f 19/31/28 10/15/28 8/12/28
f 9/13/29 14/22/29 15/23/29
f 20/35/30 3/6/30 6/10/30
f 16/26/31 14/22/31 9/13/31
f 13/21/32 12/19/32 25/48/32
f 7/11/33 1/1/33 23/42/33
f 15/24/34 5/9/34 3/5/34
f 23/43/35 10/16/35 14/22/35
f 5/9/36 4/8/36 21/38/36
f 11/17/37 13/21/37 17/27/37
f 25/48/38 1/1/38 7/11/38
f 3/5/39 5/9/39 18/28/39
f 18/29/40 13/21/40 11/17/40
f 23/44/41 1/2/41 8/12/41
f 4/7/42 8/12/42 12/20/42
f 17/27/43 7/11/43 2/4/43
f 6/10/44 3/6/44 22/41/44
f 19/32/45 4/8/45 5/9/45
f 6/10/46 11/18/46 26/51/46
f 8/12/47 1/2/47 25/49/47
f 24/47/48 9/14/48 6/10/48
