# Blender 3.5.0
# www.blender.org
mtllib Dungeon.mtl
o 立方体
v 9.357758 -1.000000 -4.452457
v 7.947289 13.600622 -4.452456
v 9.357758 -1.000000 1.000000
v 7.947289 13.600622 1.000001
v -9.357758 -1.000000 -4.452457
v -7.947289 13.600622 -4.452456
v -9.357758 -1.000000 1.000000
v -7.947289 13.600622 1.000001
v 9.357758 6.617503 -4.452456
v 9.357758 6.617502 1.000000
v -9.357758 6.617502 1.000000
v -9.357758 6.617503 -4.452456
v 0.000000 -1.000000 1.000000
v 0.000000 14.235004 1.000001
v 0.000000 -1.000000 -0.917639
v 0.000000 14.235004 -4.452456
v 0.000000 4.723214 -4.452456
v 0.000000 6.617502 1.000000
v 4.678879 -1.000000 1.000000
v 4.678879 14.235004 -4.452456
v 2.328703 4.723214 -4.452456
v 4.678879 14.235004 1.000001
v 2.317967 -1.000000 -4.452457
v 4.678879 6.617502 1.000000
v 7.018318 -1.000000 1.000000
v 7.018318 14.235004 -4.452456
v 7.018318 6.617503 -4.452456
v 7.018318 14.235004 1.000001
v 7.018318 -1.000000 -4.452457
v 7.018318 6.617502 1.000000
v -4.678879 14.235004 1.000001
v -2.317967 -1.000000 -4.452457
v -4.678879 6.617502 1.000000
v -4.678879 -1.000000 1.000000
v -4.678879 14.235004 -4.452456
v -2.328703 4.723214 -4.452456
v -7.018318 14.235004 1.000001
v -7.018318 -1.000000 -4.452457
v -7.018318 6.617502 1.000000
v -7.018318 -1.000000 1.000000
v -7.018318 14.235004 -4.452456
v -7.018318 6.617503 -4.452456
v -2.339439 -1.000000 1.000000
v -2.339439 14.235004 -4.452456
v -2.339439 14.235004 1.000001
v -2.339439 -1.000000 -0.917639
v -2.339439 6.617502 1.000000
v 2.339439 14.235004 1.000001
v 2.339439 -1.000000 -0.917639
v 2.339439 6.617502 1.000000
v 2.339439 -1.000000 1.000000
v 2.339439 14.235004 -4.452456
v 9.357758 2.808751 1.000000
v -9.357758 2.808751 1.000000
v -9.357758 2.808751 -4.452457
v 9.357758 2.808751 -4.452457
v 0.000000 2.808751 1.000000
v 0.000000 2.808751 -0.917639
v 4.678879 2.808751 1.000000
v 2.317967 2.808751 -4.452457
v 7.018318 2.808751 1.000000
v 7.018318 2.808751 -4.452457
v -2.317967 2.808751 -4.452457
v -4.678879 2.808751 1.000000
v -7.018318 2.808751 -4.452457
v -7.018318 2.808751 1.000000
v -2.339439 2.808751 1.000000
v -2.339439 2.808751 -0.917639
v 2.339439 2.808751 -0.917639
v 2.339439 2.808751 1.000000
v 9.357758 4.713128 -4.452456
v 9.357758 4.713127 1.000000
v -9.357758 4.713127 1.000000
v -9.357758 4.713128 -4.452456
v 0.000000 4.713127 1.000000
v 0.000000 4.713127 -0.917639
v 4.678879 4.713127 1.000000
v 2.317967 4.713128 -4.452456
v 7.018318 4.713127 1.000000
v 7.018318 4.713128 -4.452456
v -2.317967 4.713128 -4.452456
v -4.678879 4.713127 1.000000
v -7.018318 4.713128 -4.452456
v -7.018318 4.713127 1.000000
v -2.339439 4.713127 1.000000
v -2.339439 4.713127 -0.917639
v 2.339439 4.713127 -0.917639
v 2.339439 4.713127 1.000000
v 9.357758 10.426253 -4.452456
v 9.357758 10.426253 1.000001
v -9.357758 10.426253 1.000001
v -9.357758 10.426253 -4.452456
v 0.000000 10.426253 -4.452456
v 0.000000 10.426253 1.000001
v 4.678879 10.426253 1.000001
v 4.678879 10.426253 -4.452456
v 7.018318 10.426253 1.000001
v 7.018318 10.426253 -4.452456
v -4.678879 10.426253 -4.452456
v -4.678879 10.426253 1.000001
v -7.018318 10.426253 -4.452456
v -7.018318 10.426253 1.000001
v -2.339439 10.426253 1.000001
v -2.339439 10.426253 -4.452456
v 2.339439 10.426253 -4.452456
v 2.339439 10.426253 1.000001
v 9.357758 12.367238 -4.452456
v 9.357758 12.367238 1.000001
v -9.357758 12.367238 1.000001
v -9.357758 12.367238 -4.452456
v 0.000000 12.367238 -4.452456
v 0.000000 12.367238 1.000001
v 4.678879 12.367238 1.000001
v 4.678879 12.367238 -4.452456
v 7.018318 12.367238 1.000001
v 7.018318 12.367238 -4.452456
v -4.678879 12.367238 -4.452456
v -4.678879 12.367238 1.000001
v -7.018318 12.367238 -4.452456
v -7.018318 12.367238 1.000001
v -2.339439 12.367238 1.000001
v -2.339439 12.367238 -4.452456
v 2.339439 12.367238 -4.452456
v 2.339439 12.367238 1.000001
vn 0.6583 0.7528 -0.0000
vn -0.0000 -0.0000 1.0000
vn -0.6583 0.7528 -0.0000
vn -0.0000 -0.0000 -1.0000
vn -0.0000 -1.0000 -0.0000
vn 0.5639 0.8258 -0.0000
vn -1.0000 -0.0000 -0.0000
vn 1.0000 -0.0000 -0.0000
vn -0.0000 -1.0000 -0.0029
vn -0.0000 1.0000 -0.0000
vn -0.6847 0.7288 0.0042
vn -0.5639 0.8258 -0.0000
vn 0.6847 0.7288 0.0042
vn 1.0000 -0.0000 0.0061
vn -1.0000 -0.0000 0.0061
vt 0.375000 0.000000
vt 0.125000 0.750000
vt 0.375000 1.000000
vt 0.625000 0.000000
vt 0.625000 1.000000
vt 0.875000 0.750000
vt 0.125000 0.500000
vt 0.375000 0.250000
vt 0.875000 0.500000
vt 0.625000 0.250000
vt 0.375000 0.750000
vt 0.625000 0.750000
vt 0.375000 0.500000
vt 0.625000 0.500000
vt 0.500000 0.000000
vt 0.500000 1.000000
vt 0.500000 0.250000
vt 0.500000 0.500000
vt 0.500000 0.750000
vt 0.250000 0.500000
vt 0.375000 0.375000
vt 0.750000 0.500000
vt 0.625000 0.375000
vt 0.250000 0.750000
vt 0.375000 0.875000
vt 0.625000 0.875000
vt 0.750000 0.750000
vt 0.500000 0.875000
vt 0.500000 0.375000
vt 0.187500 0.500000
vt 0.375000 0.312500
vt 0.812500 0.750000
vt 0.625000 0.937500
vt 0.500000 0.937500
vt 0.500000 0.906250
vt 0.812500 0.500000
vt 0.625000 0.312500
vt 0.187500 0.750000
vt 0.375000 0.937500
vt 0.500000 0.312500
vt 0.156250 0.500000
vt 0.375000 0.281250
vt 0.843750 0.750000
vt 0.625000 0.968750
vt 0.500000 0.968750
vt 0.625000 0.281250
vt 0.843750 0.500000
vt 0.156250 0.750000
vt 0.375000 0.968750
vt 0.500000 0.281250
vt 0.687500 0.500000
vt 0.625000 0.437500
vt 0.312500 0.750000
vt 0.375000 0.812500
vt 0.500000 0.437500
vt 0.312500 0.500000
vt 0.375000 0.437500
vt 0.625000 0.812500
vt 0.687500 0.750000
vt 0.500000 0.812500
vt 0.500000 0.843750
vt 0.656250 0.500000
vt 0.625000 0.468750
vt 0.343750 0.750000
vt 0.375000 0.781250
vt 0.500000 0.468750
vt 0.343750 0.500000
vt 0.375000 0.468750
vt 0.656250 0.750000
vt 0.625000 0.781250
vt 0.500000 0.781250
vt 0.281250 0.500000
vt 0.375000 0.406250
vt 0.625000 0.843750
vt 0.718750 0.750000
vt 0.625000 0.406250
vt 0.718750 0.500000
vt 0.281250 0.750000
vt 0.375000 0.843750
vt 0.500000 0.406250
vt 0.781250 0.500000
vt 0.625000 0.343750
vt 0.218750 0.750000
vt 0.375000 0.906250
vt 0.500000 0.343750
vt 0.218750 0.500000
vt 0.375000 0.343750
vt 0.625000 0.906250
vt 0.781250 0.750000
vt 0.437500 0.250000
vt 0.437500 0.500000
vt 0.437500 0.750000
vt 0.437500 0.000000
vt 0.437500 1.000000
vt 0.437500 0.375000
vt 0.437500 0.875000
vt 0.437500 0.312500
vt 0.437500 0.937500
vt 0.437500 0.281250
vt 0.437500 0.968750
vt 0.437500 0.812500
vt 0.437500 0.437500
vt 0.437500 0.781250
vt 0.437500 0.468750
vt 0.437500 0.406250
vt 0.437500 0.843750
vt 0.437500 0.906250
vt 0.437500 0.343750
vt 0.468750 0.000000
vt 0.468750 1.000000
vt 0.468750 0.250000
vt 0.468750 0.500000
vt 0.468750 0.750000
vt 0.468750 0.375000
vt 0.468750 0.875000
vt 0.468750 0.312500
vt 0.468750 0.937500
vt 0.468750 0.281250
vt 0.468750 0.968750
vt 0.468750 0.812500
vt 0.468750 0.437500
vt 0.468750 0.781250
vt 0.468750 0.468750
vt 0.468750 0.406250
vt 0.468750 0.843750
vt 0.468750 0.906250
vt 0.468750 0.343750
vt 0.562500 0.000000
vt 0.562500 1.000000
vt 0.562500 0.250000
vt 0.562500 0.500000
vt 0.562500 0.750000
vt 0.562500 0.875000
vt 0.562500 0.375000
vt 0.562500 0.312500
vt 0.562500 0.937500
vt 0.562500 0.281250
vt 0.562500 0.968750
vt 0.562500 0.812500
vt 0.562500 0.437500
vt 0.562500 0.781250
vt 0.562500 0.468750
vt 0.562500 0.406250
vt 0.562500 0.843750
vt 0.562500 0.906250
vt 0.562500 0.343750
vt 0.594351 1.000000
vt 0.594351 0.000000
vt 0.594351 0.250000
vt 0.594351 0.500000
vt 0.594351 0.750000
vt 0.594351 0.875000
vt 0.594351 0.375000
vt 0.594351 0.312500
vt 0.594351 0.937500
vt 0.594351 0.281250
vt 0.594351 0.968750
vt 0.594351 0.812500
vt 0.594351 0.437500
vt 0.594351 0.781250
vt 0.594351 0.468750
vt 0.594351 0.406250
vt 0.594351 0.843750
vt 0.594351 0.906250
vt 0.594351 0.343750
s 0
usemtl マテリアル
f 2/4/1 108/149/1 107/148/1
f 120/161/2 8/14/2 109/150/2
f 8/14/3 110/151/3 109/150/3
f 116/157/4 2/5/4 107/147/4
f 7/13/5 38/64/5 40/67/5
f 4/9/6 26/43/6 28/47/6
f 27/45/4 71/110/4 80/119/4
f 11/18/7 74/113/7 73/112/7
f 39/66/2 73/112/2 84/123/2
f 9/15/8 72/111/8 71/109/8
f 50/85/2 75/114/2 88/127/2
f 36/61/9 76/115/9 86/125/9
f 14/22/10 44/75/10 45/77/10
f 13/20/5 49/83/5 51/86/5
f 44/74/4 111/152/4 122/163/4
f 48/82/2 112/153/2 124/165/2
f 28/46/2 113/154/2 115/156/2
f 19/30/5 29/48/5 25/41/5
f 30/50/2 77/116/2 79/118/2
f 87/126/11 21/34/11 78/117/11
f 22/36/10 52/89/10 48/81/10
f 52/88/4 114/155/4 123/164/4
f 10/17/2 79/118/2 72/111/2
f 25/41/5 1/2/5 3/7/5
f 4/10/2 115/156/2 108/149/2
f 21/34/4 80/119/4 78/117/4
f 28/47/10 20/32/10 22/36/10
f 20/33/4 116/157/4 114/155/4
f 41/70/4 117/158/4 119/160/4
f 31/51/10 41/69/10 37/62/10
f 83/122/4 36/60/4 81/120/4
f 47/80/2 82/121/2 85/124/2
f 34/56/5 46/78/5 43/72/5
f 45/76/2 118/159/2 121/162/2
f 12/19/4 83/122/4 74/113/4
f 37/62/12 6/12/12 8/14/12
f 6/12/4 119/160/4 110/151/4
f 33/55/2 84/123/2 82/121/2
f 34/56/5 38/64/5 32/53/5
f 31/52/2 120/161/2 118/159/2
f 14/23/2 121/162/2 112/153/2
f 43/72/5 15/24/5 13/20/5
f 18/29/2 85/124/2 75/114/2
f 35/58/4 122/163/4 117/158/4
f 45/77/10 35/59/10 31/51/10
f 81/120/13 36/61/13 86/125/13
f 16/26/4 123/164/4 111/152/4
f 48/81/10 16/27/10 14/22/10
f 76/115/9 21/35/9 87/126/9
f 22/37/2 124/165/2 113/154/2
f 19/30/5 49/83/5 23/38/5
f 24/40/2 88/127/2 77/116/2
f 59/97/2 51/87/2 19/31/2
f 58/96/4 49/84/4 15/25/4
f 63/101/14 46/79/14 32/54/14
f 57/95/2 43/73/2 13/21/2
f 64/102/2 40/68/2 34/57/2
f 55/92/4 38/65/4 5/11/4
f 67/105/2 34/57/2 43/73/2
f 65/103/4 32/54/4 38/65/4
f 60/98/4 29/49/4 23/39/4
f 53/90/2 25/42/2 3/8/2
f 69/107/15 23/39/15 49/84/15
f 61/99/2 19/31/2 25/42/2
f 68/106/4 15/25/4 46/79/4
f 70/108/2 13/21/2 51/87/2
f 56/93/8 3/8/8 1/1/8
f 66/104/2 7/13/2 40/68/2
f 54/91/7 5/11/7 7/13/7
f 62/100/4 1/3/4 29/49/4
f 77/116/2 70/108/2 59/97/2
f 76/115/4 69/107/4 58/96/4
f 81/120/14 68/106/14 63/101/14
f 75/114/2 67/105/2 57/95/2
f 82/121/2 66/104/2 64/102/2
f 74/113/4 65/103/4 55/92/4
f 85/124/2 64/102/2 67/105/2
f 83/122/4 63/101/4 65/103/4
f 78/117/4 62/100/4 60/98/4
f 72/111/2 61/99/2 53/90/2
f 87/126/15 60/98/15 69/107/15
f 79/118/2 59/97/2 61/99/2
f 86/125/4 58/96/4 68/106/4
f 88/127/2 57/95/2 70/108/2
f 71/109/8 53/90/8 56/93/8
f 84/123/2 54/91/2 66/104/2
f 73/112/7 55/92/7 54/91/7
f 80/119/4 56/94/4 62/100/4
f 95/135/2 50/85/2 24/40/2
f 93/133/4 21/35/4 17/28/4
f 36/60/4 99/139/4 104/144/4
f 94/134/2 47/80/2 18/29/2
f 100/140/2 39/66/2 33/55/2
f 92/132/4 42/71/4 12/19/4
f 103/143/2 33/55/2 47/80/2
f 42/71/4 99/139/4 36/60/4
f 96/136/4 27/45/4 21/34/4
f 90/130/2 30/50/2 10/17/2
f 21/35/4 105/145/4 96/136/4
f 97/137/2 24/40/2 30/50/2
f 106/146/2 18/29/2 50/85/2
f 36/61/4 93/133/4 17/28/4
f 98/138/4 9/16/4 27/45/4
f 91/131/7 12/19/7 11/18/7
f 102/142/2 11/18/2 39/66/2
f 89/128/8 10/17/8 9/15/8
f 113/154/2 106/146/2 95/135/2
f 111/152/4 105/145/4 93/133/4
f 117/158/4 104/144/4 99/139/4
f 112/153/2 103/143/2 94/134/2
f 118/159/2 102/142/2 100/140/2
f 110/151/4 101/141/4 92/132/4
f 121/162/2 100/140/2 103/143/2
f 119/160/4 99/139/4 101/141/4
f 114/155/4 98/138/4 96/136/4
f 108/149/2 97/137/2 90/130/2
f 123/164/4 96/136/4 105/145/4
f 115/156/2 95/135/2 97/137/2
f 124/165/2 94/134/2 106/146/2
f 122/163/4 93/133/4 104/144/4
f 116/157/4 89/129/4 98/138/4
f 109/150/7 92/132/7 91/131/7
f 120/161/2 91/131/2 102/142/2
f 107/148/8 90/130/8 89/128/8
f 2/4/1 4/10/1 108/149/1
f 120/161/2 37/63/2 8/14/2
f 8/14/3 6/12/3 110/151/3
f 116/157/4 26/44/4 2/5/4
f 7/13/5 5/11/5 38/64/5
f 4/9/6 2/6/6 26/43/6
f 27/45/4 9/16/4 71/110/4
f 11/18/7 12/19/7 74/113/7
f 39/66/2 11/18/2 73/112/2
f 9/15/8 10/17/8 72/111/8
f 50/85/2 18/29/2 75/114/2
f 36/61/9 17/28/9 76/115/9
f 14/22/10 16/27/10 44/75/10
f 13/20/5 15/24/5 49/83/5
f 44/74/4 16/26/4 111/152/4
f 48/82/2 14/23/2 112/153/2
f 28/46/2 22/37/2 113/154/2
f 19/30/5 23/38/5 29/48/5
f 30/50/2 24/40/2 77/116/2
f 22/36/10 20/32/10 52/89/10
f 52/88/4 20/33/4 114/155/4
f 10/17/2 30/50/2 79/118/2
f 25/41/5 29/48/5 1/2/5
f 4/10/2 28/46/2 115/156/2
f 21/34/4 27/45/4 80/119/4
f 28/47/10 26/43/10 20/32/10
f 20/33/4 26/44/4 116/157/4
f 41/70/4 35/58/4 117/158/4
f 31/51/10 35/59/10 41/69/10
f 83/122/4 42/71/4 36/60/4
f 47/80/2 33/55/2 82/121/2
f 34/56/5 32/53/5 46/78/5
f 45/76/2 31/52/2 118/159/2
f 12/19/4 42/71/4 83/122/4
f 37/62/12 41/69/12 6/12/12
f 6/12/4 41/70/4 119/160/4
f 33/55/2 39/66/2 84/123/2
f 34/56/5 40/67/5 38/64/5
f 31/52/2 37/63/2 120/161/2
f 14/23/2 45/76/2 121/162/2
f 43/72/5 46/78/5 15/24/5
f 18/29/2 47/80/2 85/124/2
f 35/58/4 44/74/4 122/163/4
f 45/77/10 44/75/10 35/59/10
f 16/26/4 52/88/4 123/164/4
f 48/81/10 52/89/10 16/27/10
f 76/115/9 17/28/9 21/35/9
f 22/37/2 48/82/2 124/165/2
f 19/30/5 51/86/5 49/83/5
f 24/40/2 50/85/2 88/127/2
f 59/97/2 70/108/2 51/87/2
f 58/96/4 69/107/4 49/84/4
f 63/101/14 68/106/14 46/79/14
f 57/95/2 67/105/2 43/73/2
f 64/102/2 66/104/2 40/68/2
f 55/92/4 65/103/4 38/65/4
f 67/105/2 64/102/2 34/57/2
f 65/103/4 63/101/4 32/54/4
f 60/98/4 62/100/4 29/49/4
f 53/90/2 61/99/2 25/42/2
f 69/107/15 60/98/15 23/39/15
f 61/99/2 59/97/2 19/31/2
f 68/106/4 58/96/4 15/25/4
f 70/108/2 57/95/2 13/21/2
f 56/93/8 53/90/8 3/8/8
f 66/104/2 54/91/2 7/13/2
f 54/91/7 55/92/7 5/11/7
f 62/100/4 56/94/4 1/3/4
f 77/116/2 88/127/2 70/108/2
f 76/115/4 87/126/4 69/107/4
f 81/120/14 86/125/14 68/106/14
f 75/114/2 85/124/2 67/105/2
f 82/121/2 84/123/2 66/104/2
f 74/113/4 83/122/4 65/103/4
f 85/124/2 82/121/2 64/102/2
f 83/122/4 81/120/4 63/101/4
f 78/117/4 80/119/4 62/100/4
f 72/111/2 79/118/2 61/99/2
f 87/126/15 78/117/15 60/98/15
f 79/118/2 77/116/2 59/97/2
f 86/125/4 76/115/4 58/96/4
f 88/127/2 75/114/2 57/95/2
f 71/109/8 72/111/8 53/90/8
f 84/123/2 73/112/2 54/91/2
f 73/112/7 74/113/7 55/92/7
f 80/119/4 71/110/4 56/94/4
f 95/135/2 106/146/2 50/85/2
f 93/133/4 105/145/4 21/35/4
f 94/134/2 103/143/2 47/80/2
f 100/140/2 102/142/2 39/66/2
f 92/132/4 101/141/4 42/71/4
f 103/143/2 100/140/2 33/55/2
f 42/71/4 101/141/4 99/139/4
f 96/136/4 98/138/4 27/45/4
f 90/130/2 97/137/2 30/50/2
f 97/137/2 95/135/2 24/40/2
f 106/146/2 94/134/2 18/29/2
f 36/61/4 104/144/4 93/133/4
f 98/138/4 89/129/4 9/16/4
f 91/131/7 92/132/7 12/19/7
f 102/142/2 91/131/2 11/18/2
f 89/128/8 90/130/8 10/17/8
f 113/154/2 124/165/2 106/146/2
f 111/152/4 123/164/4 105/145/4
f 117/158/4 122/163/4 104/144/4
f 112/153/2 121/162/2 103/143/2
f 118/159/2 120/161/2 102/142/2
f 110/151/4 119/160/4 101/141/4
f 121/162/2 118/159/2 100/140/2
f 119/160/4 117/158/4 99/139/4
f 114/155/4 116/157/4 98/138/4
f 108/149/2 115/156/2 97/137/2
f 123/164/4 114/155/4 96/136/4
f 115/156/2 113/154/2 95/135/2
f 124/165/2 112/153/2 94/134/2
f 122/163/4 111/152/4 93/133/4
f 116/157/4 107/147/4 89/129/4
f 109/150/7 110/151/7 92/132/7
f 120/161/2 109/150/2 91/131/2
f 107/148/8 108/149/8 90/130/8
